<svg xmlns="http://www.w3.org/2000/svg" viewBox="0 0 640 400" font-family="system-ui,sans-serif" font-size="12">
<rect width="640" height="400" fill="white"/>
<text x="62" y="24" font-size="15" font-weight="bold">Time to land an agent burst (projected 10-min CI)</text>
<line x1="62" y1="354.0" x2="624" y2="354.0" stroke="#e5e5e5"/>
<text x="56" y="358.0" text-anchor="end">0.0h</text>
<line x1="62" y1="277.0" x2="624" y2="277.0" stroke="#e5e5e5"/>
<text x="56" y="281.0" text-anchor="end">1.5h</text>
<line x1="62" y1="200.0" x2="624" y2="200.0" stroke="#e5e5e5"/>
<text x="56" y="204.0" text-anchor="end">3.0h</text>
<line x1="62" y1="123.0" x2="624" y2="123.0" stroke="#e5e5e5"/>
<text x="56" y="127.0" text-anchor="end">4.5h</text>
<line x1="62" y1="46.0" x2="624" y2="46.0" stroke="#e5e5e5"/>
<text x="56" y="50.0" text-anchor="end">5.9h</text>
<text x="130.12121212121212" y="370" text-anchor="middle">4</text>
<text x="198.24242424242425" y="370" text-anchor="middle">8</text>
<text x="266.3636363636364" y="370" text-anchor="middle">12</text>
<text x="334.4848484848485" y="370" text-anchor="middle">16</text>
<text x="402.6060606060606" y="370" text-anchor="middle">20</text>
<text x="470.72727272727275" y="370" text-anchor="middle">24</text>
<text x="538.8484848484849" y="370" text-anchor="middle">28</text>
<text x="624.0" y="370" text-anchor="middle">33</text>
<text x="351.0" y="390" text-anchor="middle" fill="#555">fleet size (changesets in burst)</text>
<text x="16" y="223.0" transform="rotate(-90 16 223.0)" text-anchor="middle" fill="#555">wall-clock to all-landed</text>
<polyline points="130.1,319.4 198.2,284.9 266.4,250.3 334.5,215.7 402.6,181.2 470.7,146.6 538.8,112.0 624.0,68.8" fill="none" stroke="#d62728" stroke-width="2.5"/>
<circle cx="624.0" cy="68.81481481481484" r="3.5" fill="#d62728"/>
<polyline points="130.1,284.9 198.2,284.7 266.4,215.2 334.5,197.1 402.6,196.9 470.7,196.9 538.8,196.9 624.0,196.7" fill="none" stroke="#ff9f40" stroke-width="2.5"/>
<circle cx="624.0" cy="196.71748971193418" r="3.5" fill="#ff9f40"/>
<polyline points="130.1,319.4 198.2,319.2 266.4,318.9 334.5,283.4 402.6,283.2 470.7,283.2 538.8,283.2 624.0,283.0" fill="none" stroke="#2a9d8f" stroke-width="2.5"/>
<circle cx="624.0" cy="283.01049382716053" r="3.5" fill="#2a9d8f"/>
<rect x="70" y="52" width="18" height="4" fill="#d62728"/><text x="94" y="58">serial queue</text>
<rect x="70" y="70" width="18" height="4" fill="#ff9f40"/><text x="94" y="76">file locking</text>
<rect x="70" y="88" width="18" height="4" fill="#2a9d8f"/><text x="94" y="94">cafecito</text>
</svg>